<svg xmlns="http://www.w3.org/2000/svg" width="35.621" height="44.407" viewBox="0 0 35.621 44.407">
  <g id="coffee-default" transform="translate(-60.5 -90)">
    <g id="Group_16" data-name="Group 16" transform="translate(61.835 91.335)" opacity="0.5">
      <rect id="Rectangle_9" data-name="Rectangle 9" width="32.952" height="6.145" transform="translate(0 7.269)" fill="#fd8a06"/>
      <path id="Path_3" data-name="Path 3" d="M144.423,115.669H117l4-7.269h19.414Z" transform="translate(-114.236 -108.4)" fill="#fd8a06"/>
    </g>
    <path id="Path_4" data-name="Path 4" d="M94.786,106.084a1.331,1.331,0,0,0,1.335-1.335V98.6a1.331,1.331,0,0,0-1.335-1.335H92.806l-3.627-6.58A1.325,1.325,0,0,0,88.01,90H68.6a1.325,1.325,0,0,0-1.168.689l-3.627,6.58H61.835A1.331,1.331,0,0,0,60.5,98.6v6.145a1.331,1.331,0,0,0,1.335,1.335h.994l.348,4H61.958a1.342,1.342,0,0,0-1.335,1.451l1.335,15.206a1.334,1.334,0,0,0,1.328,1.219h1.458l.457,5.231a1.334,1.334,0,0,0,1.328,1.219H90.078a1.334,1.334,0,0,0,1.328-1.219l.457-5.231h1.465a1.334,1.334,0,0,0,1.328-1.219l1.335-15.206a1.342,1.342,0,0,0-1.335-1.451H87.51a1.335,1.335,0,1,0,0,2.67H93.2l-1.1,12.544H64.512l-1.1-12.544H79.152a1.335,1.335,0,1,0,0-2.67H65.861l-.348-4Zm-5.92,25.646H67.755l-.334-3.78H89.193ZM69.394,92.67H87.227l2.532,4.6h-22.9ZM63.17,99.939H93.452v3.475H63.17V99.939Z" fill="#fd8a06"/>
  </g>
</svg>
