<svg id="invoice-default" xmlns="http://www.w3.org/2000/svg" width="37.861" height="46.1" viewBox="0 0 37.861 46.1">
  <path id="Path_11" data-name="Path 11" d="M186.031,210.527h-6.244a1.546,1.546,0,0,1-1.544-1.544v-4.248a3.682,3.682,0,1,1,3.585-5.649,3.683,3.683,0,0,1,6.191,0,3.682,3.682,0,1,1,3.585,5.649v4.248a1.546,1.546,0,0,1-1.544,1.544h-4.029Z" transform="translate(-165.982 -189.311)" fill="#fd8a06" opacity="0.5"/>
  <g id="Group_18" data-name="Group 18" transform="translate(0 0)">
    <path id="Path_12" data-name="Path 12" d="M174.5,196.478H164.241a2.814,2.814,0,0,1-2.809-2.809V190.4a4.941,4.941,0,1,1,4.843-8.473,4.96,4.96,0,0,1,6.191,0,4.94,4.94,0,1,1,4.843,8.473v3.269A2.814,2.814,0,0,1,174.5,196.478Zm-11.312-13.12h-.105a2.418,2.418,0,0,0-.218,4.813,1.266,1.266,0,0,1,1.1,1.25v4.248a.278.278,0,0,0,.279.279H174.5a.278.278,0,0,0,.279-.279v-4.248a1.26,1.26,0,0,1,1.1-1.25,2.418,2.418,0,1,0-2.357-3.706,1.264,1.264,0,0,1-1.062.58h0a1.264,1.264,0,0,1-1.062-.58,2.421,2.421,0,0,0-4.067,0,1.262,1.262,0,0,1-2.124,0A2.378,2.378,0,0,0,163.187,183.359Z" transform="translate(-150.436 -173.997)" fill="#fd8a06"/>
    <path id="Path_13" data-name="Path 13" d="M87.754,136.093h-1.6a1.265,1.265,0,0,1,0-2.531h1.6a2.186,2.186,0,0,0,2.184-2.184V94.662A2.137,2.137,0,0,0,87.8,92.523H59.262a2.137,2.137,0,0,0-2.139,2.139v36.724a2.186,2.186,0,0,0,2.184,2.184h1.8a.556.556,0,0,0,.557-.557v-.459a3.092,3.092,0,0,1,3.088-3.088h3.419a3.092,3.092,0,0,1,3.088,3.088v.459a.556.556,0,0,0,.557.557h3.615a.556.556,0,0,0,.557-.557v-.459a3.092,3.092,0,0,1,3.088-3.088H80.99a1.265,1.265,0,0,1,0,2.531H79.077a.556.556,0,0,0-.557.557v.459a3.092,3.092,0,0,1-3.088,3.088H71.817a3.092,3.092,0,0,1-3.088-3.088v-.459a.556.556,0,0,0-.557-.557H64.752a.556.556,0,0,0-.557.557v.459a3.092,3.092,0,0,1-3.088,3.088h-1.8a4.709,4.709,0,0,1-4.707-4.707V94.662A4.67,4.67,0,0,1,59.262,90H87.8a4.67,4.67,0,0,1,4.662,4.662v36.724A4.7,4.7,0,0,1,87.754,136.093Z" transform="translate(-54.6 -90)" fill="#fd8a06"/>
    <path id="Path_14" data-name="Path 14" d="M148.983,442.131H136.865a1.265,1.265,0,0,1,0-2.531h12.118a1.265,1.265,0,0,1,0,2.531Z" transform="translate(-129.499 -413.27)" fill="#fd8a06"/>
    <path id="Path_15" data-name="Path 15" d="M148.983,530.031H136.865a1.265,1.265,0,1,1,0-2.531h12.118a1.265,1.265,0,1,1,0,2.531Z" transform="translate(-129.499 -494.55)" fill="#fd8a06"/>
    <path id="Path_16" data-name="Path 16" d="M388.307,442.131h-4.541a1.265,1.265,0,1,1,0-2.531h4.541a1.265,1.265,0,0,1,0,2.531Z" transform="translate(-357.804 -413.27)" fill="#fd8a06"/>
    <path id="Path_17" data-name="Path 17" d="M388.307,530.031h-4.541a1.265,1.265,0,1,1,0-2.531h4.541a1.265,1.265,0,0,1,0,2.531Z" transform="translate(-357.804 -494.55)" fill="#fd8a06"/>
  </g>
</svg>
