<svg id="time-left-default" xmlns="http://www.w3.org/2000/svg" width="53.007" height="58.461" viewBox="0 0 53.007 58.461">
  <path id="Path_65" data-name="Path 65" d="M306,253.2v16.373h16.373A16.368,16.368,0,0,0,306,253.2Z" transform="translate(-279.492 -237.61)" fill="#fd8a06" opacity="0.5"/>
  <path id="Path_66" data-name="Path 66" d="M79.835,120.291a1.667,1.667,0,0,0-1.672,1.672,23.162,23.162,0,1,1-9.075-18.389l-3.62,3.639a18,18,0,0,0-10.46-3.343,1.725,1.725,0,0,0-1.719,1.719v16.373a1.725,1.725,0,0,0,1.719,1.719H69.557A14.652,14.652,0,1,1,46.134,110.3a1.718,1.718,0,0,0-2.082-2.732A18.1,18.1,0,1,0,68.9,110.375l10.374,2.78a1.662,1.662,0,0,0,.43.057h.019a1.67,1.67,0,0,0,1.653-1.672,1.611,1.611,0,0,0-.086-.535l-3.4-12.686a1.675,1.675,0,0,0-2.8-.755l-3.62,3.62A26.449,26.449,0,0,0,56.68,95.512V93.343h2.025a1.672,1.672,0,1,0,0-3.343H51.311a1.672,1.672,0,1,0,0,3.343h2.025v2.168a26.5,26.5,0,1,0,28.17,26.451A1.667,1.667,0,0,0,79.835,120.291ZM69.041,117.74c.01.029.019.057.029.1.048.172.1.344.143.525.01.029.01.057.019.086.048.182.086.363.124.544v.019c.038.182.067.363.105.554.01.029.01.067.019.1.029.182.057.353.076.535a.086.086,0,0,0,.01.048H56.728V107.4a.086.086,0,0,1,.048.01c.181.019.363.048.544.076.029.01.057.01.1.019.191.029.373.067.554.105h.01c.181.038.373.076.554.124.029.01.048.01.076.019.181.048.353.1.525.143l.086.029c.172.057.353.105.525.172.019.01.029.01.048.019.172.057.344.124.516.191.01,0,.019.01.029.01.172.067.344.143.516.21.029.01.048.019.076.029.162.076.334.153.5.229l.057.029c.344.172.669.353.993.545a.209.209,0,0,1,.048.029c.153.1.315.191.468.3.019.01.038.029.057.038l.459.315c.01.01.019.01.019.019.153.115.306.22.459.344.01,0,.01.01.019.01.143.115.287.229.43.353.019.019.038.029.057.048.143.115.277.239.411.363l.038.038q.416.387.8.8l.038.038c.124.134.248.277.363.411.019.019.029.038.048.057.124.143.239.287.353.43,0,.01.01.01.01.019.115.153.229.3.344.459.01.01.01.019.019.019l.315.459a.415.415,0,0,1,.038.067c.1.153.2.306.287.468l.029.057c.191.325.373.65.544.993.01.019.019.048.029.067.076.162.153.325.229.5a.286.286,0,0,0,.038.076c.076.172.143.344.21.516,0,.01.01.019.01.038.067.172.134.344.191.516.01.019.01.038.019.057A2.16,2.16,0,0,1,69.041,117.74Zm6.372-15.762,1.93,7.193-7.193-1.93Z" transform="translate(-28.5 -90)" fill="#fd8a06"/>
</svg>
