<svg xmlns="http://www.w3.org/2000/svg" width="233.16" height="82.329" viewBox="0 0 233.16 82.329">
  <g id="logo-footer-default" transform="translate(-107.612 -82.08)">
    <g id="logo-default" transform="translate(107.612 82.08)">
      <g id="Group_1" data-name="Group 1" transform="translate(0 0)">
        <path id="Path_1" data-name="Path 1" d="M64.543,29.813A34.693,34.693,0,0,0,49.6,95.828l1.087-21s-2.044-.671-2.491-.89c-4.336-1.91-7.485-7.533-7.485-14.83,0-7.963,6.176-14.822,12.146-14.879h.023c5.972.057,12.148,6.916,12.148,14.879,0,7.3-3.153,12.918-7.479,14.83-.034.015-2.511.915-2.511.915L56.25,98.2a34.032,34.032,0,0,0,19.335-.784L76.66,76.609a11.153,11.153,0,0,1-6.766-4.691c-1.877-2.8,1.445-27.688,1.445-27.688H73.5V67.582h2.146V44.23h2.346V67.582h2.136V44.23h2.434V67.582H84.7V44.23H86.36S89.681,69.112,87.8,71.924A11.186,11.186,0,0,1,81.108,76.6l-.1.035.935,17.9A34.7,34.7,0,0,0,64.539,29.81Z" transform="translate(-23.376 -23.366)" fill="#fd8a06"/>
        <path id="Path_2" data-name="Path 2" d="M93.567,143.339a9.983,9.983,0,0,1,.3-1,.454.454,0,0,0-.253-.506.415.415,0,0,0-.545.118s-.238.378-.582.938a10.06,10.06,0,0,0-.978,2.207,18.252,18.252,0,0,0-.669,3.2,15.279,15.279,0,0,0-.049,1.857,8.788,8.788,0,0,0,.355,1.968c.682,1.939,1.208,3.816,3.1,5.664a10.683,10.683,0,0,0,1.656,1.344l.157.111c.1.063.187.121.278.174a3.184,3.184,0,0,0,.668.276.4.4,0,0,0,.456-.191.407.407,0,0,0-.134-.482,4.343,4.343,0,0,1-.494-.54,9.8,9.8,0,0,1-.635-.871c-.17-.247-.369-.523-.555-.8a28.1,28.1,0,0,1-2.192-5.392,7.173,7.173,0,0,1-.307-1.481,15.159,15.159,0,0,1-.087-1.587,20.963,20.963,0,0,1,.131-2.946,11.5,11.5,0,0,1,.378-2.072Z" transform="translate(-71.15 -111.123)" fill="#fd8a06"/>
        <path id="Path_3" data-name="Path 3" d="M41.167,0A41.164,41.164,0,1,0,82.329,41.164,41.165,41.165,0,0,0,41.167,0Zm0,79.258a38.1,38.1,0,1,1,38.1-38.1A38.1,38.1,0,0,1,41.167,79.258Z" transform="translate(0 0)" fill="#fd8a06"/>
      </g>
    </g>
    <g id="Group_1-2" data-name="Group 1" transform="translate(-6 1)">
      <path id="Path_2-2" data-name="Path 2" d="M12.64.56a25.886,25.886,0,0,1-6.6-.84A16.233,16.233,0,0,1,.84-2.52l2.6-5.84a16.824,16.824,0,0,0,4.36,2,16.6,16.6,0,0,0,4.88.76q4.56,0,4.56-2.28a1.888,1.888,0,0,0-1.3-1.78,23.907,23.907,0,0,0-4.18-1.22,39.9,39.9,0,0,1-5.28-1.46,8.887,8.887,0,0,1-3.64-2.5,6.755,6.755,0,0,1-1.52-4.64,8.033,8.033,0,0,1,1.4-4.62A9.368,9.368,0,0,1,6.9-27.36a17.2,17.2,0,0,1,6.82-1.2,24.058,24.058,0,0,1,5.44.62,16.659,16.659,0,0,1,4.72,1.82l-2.44,5.88a16.3,16.3,0,0,0-7.76-2.16,6.506,6.506,0,0,0-3.44.7,2.1,2.1,0,0,0-1.08,1.82,1.8,1.8,0,0,0,1.28,1.68,23.144,23.144,0,0,0,4.12,1.16,38.6,38.6,0,0,1,5.3,1.46A9.152,9.152,0,0,1,23.5-13.1a6.623,6.623,0,0,1,1.54,4.62,7.876,7.876,0,0,1-1.4,4.56,9.543,9.543,0,0,1-4.2,3.26A16.988,16.988,0,0,1,12.64.56ZM44.68-28a15.97,15.97,0,0,1,6.6,1.26,9.788,9.788,0,0,1,4.32,3.6,9.87,9.87,0,0,1,1.52,5.5,9.772,9.772,0,0,1-1.52,5.48,9.836,9.836,0,0,1-4.32,3.58,15.97,15.97,0,0,1-6.6,1.26H39.8V0H31.88V-28ZM44.2-13.56a5.534,5.534,0,0,0,3.68-1.06,3.755,3.755,0,0,0,1.24-3.02,3.816,3.816,0,0,0-1.24-3.04,5.462,5.462,0,0,0-3.68-1.08H39.8v8.2ZM64.16-28h7.92V0H64.16ZM94.88.56a16.571,16.571,0,0,1-7.9-1.86,13.909,13.909,0,0,1-5.5-5.18,14.286,14.286,0,0,1-2-7.52,14.286,14.286,0,0,1,2-7.52,13.909,13.909,0,0,1,5.5-5.18,16.571,16.571,0,0,1,7.9-1.86,16.957,16.957,0,0,1,6.92,1.36,13.314,13.314,0,0,1,5.12,3.92l-5.04,4.56A8.29,8.29,0,0,0,95.28-22a8.146,8.146,0,0,0-4.06,1,6.94,6.94,0,0,0-2.76,2.82A8.679,8.679,0,0,0,87.48-14a8.679,8.679,0,0,0,.98,4.18A6.94,6.94,0,0,0,91.22-7a8.145,8.145,0,0,0,4.06,1,8.29,8.29,0,0,0,6.6-3.28l5.04,4.56A13.314,13.314,0,0,1,101.8-.8,16.957,16.957,0,0,1,94.88.56Zm33.64-10.6V0H120.6V-10.16L109.92-28h8.36l6.64,11.12L131.56-28h7.68Z" transform="translate(207.532 132)" fill="#fff"/>
      <path id="Path_1-2" data-name="Path 1" d="M8.6,0,6.33-3.225q-.42.03-.66.03H3.075V0h-1.5V-10.5h4.1a4.864,4.864,0,0,1,3.21.975A3.307,3.307,0,0,1,10.05-6.84a3.512,3.512,0,0,1-.6,2.07A3.39,3.39,0,0,1,7.74-3.525L10.23,0ZM5.625-4.47A3.356,3.356,0,0,0,7.8-5.085,2.14,2.14,0,0,0,8.55-6.84,2.119,2.119,0,0,0,7.8-8.588,3.385,3.385,0,0,0,5.625-9.2H3.075V-4.47ZM23.1-1.305V0H15.48V-10.5h7.41V-9.2H16.98V-5.97h5.265V-4.7H16.98v3.39ZM31.59.12A7.186,7.186,0,0,1,29.3-.248,4.7,4.7,0,0,1,27.57-1.2l.555-1.17a4.6,4.6,0,0,0,1.538.878,5.649,5.649,0,0,0,1.927.337A3.472,3.472,0,0,0,33.54-1.6a1.364,1.364,0,0,0,.645-1.178,1.16,1.16,0,0,0-.353-.878,2.357,2.357,0,0,0-.87-.518q-.518-.18-1.463-.4a15.071,15.071,0,0,1-1.913-.57,3.162,3.162,0,0,1-1.245-.877,2.343,2.343,0,0,1-.517-1.6,2.7,2.7,0,0,1,.442-1.515,3.039,3.039,0,0,1,1.343-1.08,5.446,5.446,0,0,1,2.235-.4,7.073,7.073,0,0,1,1.83.24,4.869,4.869,0,0,1,1.545.69l-.5,1.2a5.431,5.431,0,0,0-1.41-.637,5.263,5.263,0,0,0-1.47-.217,3.239,3.239,0,0,0-1.912.465,1.424,1.424,0,0,0-.638,1.2,1.148,1.148,0,0,0,.36.877,2.5,2.5,0,0,0,.892.525A13.945,13.945,0,0,0,32-5.88a14.663,14.663,0,0,1,1.905.57,3.207,3.207,0,0,1,1.237.87,2.291,2.291,0,0,1,.517,1.575,2.681,2.681,0,0,1-.45,1.508A3.014,3.014,0,0,1,33.84-.278,5.646,5.646,0,0,1,31.59.12ZM42.78-9.2h-3.6V-10.5h8.685V-9.2h-3.6V0H42.78Zm15.885,6.57h-5.58L51.93,0H50.385L55.14-10.5h1.485L61.395,0H59.82Zm-.525-1.2L55.875-8.97,53.61-3.825ZM70.08.12a4.357,4.357,0,0,1-3.27-1.2,4.742,4.742,0,0,1-1.17-3.45V-10.5h1.5v5.91q0,3.375,2.955,3.375A2.845,2.845,0,0,0,72.3-2.048a3.655,3.655,0,0,0,.765-2.543V-10.5H74.52v5.97a4.737,4.737,0,0,1-1.17,3.458A4.372,4.372,0,0,1,70.08.12ZM87.615,0,85.35-3.225q-.42.03-.66.03h-2.6V0h-1.5V-10.5h4.1a4.864,4.864,0,0,1,3.21.975A3.307,3.307,0,0,1,89.07-6.84a3.512,3.512,0,0,1-.6,2.07,3.39,3.39,0,0,1-1.71,1.245L89.25,0Zm-2.97-4.47a3.356,3.356,0,0,0,2.175-.615,2.14,2.14,0,0,0,.75-1.755,2.119,2.119,0,0,0-.75-1.747A3.385,3.385,0,0,0,84.645-9.2h-2.55V-4.47ZM101.19-2.625H95.61L94.455,0H92.91l4.755-10.5H99.15L103.92,0h-1.575Zm-.525-1.2L98.4-8.97,96.135-3.825ZM117.51-10.5V0h-1.23l-6.3-7.83V0h-1.5V-10.5h1.23l6.3,7.83V-10.5ZM125.745-9.2h-3.6V-10.5h8.685V-9.2h-3.6V0h-1.485Z" transform="translate(210.532 152)" fill="#fff"/>
      <path id="Path_3-2" data-name="Path 3" d="M5,0A5,5,0,1,1,0,5,5,5,0,0,1,5,0Z" transform="translate(270.532 91)" fill="#fd8a06"/>
    </g>
  </g>
</svg>
